{
	"asset":{
		"generator":"Khronos glTF Blender I/O v3.5.30",
		"version":"2.0"
	},
	"extensionsUsed":[
		"KHR_materials_specular",
		"KHR_materials_ior"
	],
	"scene":0,
	"scenes":[
		{
			"name":"Scene",
			"nodes":[
				8,
				14
			]
		}
	],
	"nodes":[
		{
			"mesh":0,
			"name":"Box002_default_0",
			"translation":[
				0,
				0,
				0.03225300833582878
			]
		},
		{
			"children":[
				0
			],
			"name":"Box002",
			"rotation":[
				-0.70710688829422,
				0,
				0,
				0.7071066498756409
			]
		},
		{
			"mesh":1,
			"name":"Group18985_default_0"
		},
		{
			"children":[
				2
			],
			"name":"Group18985",
			"rotation":[
				-0.70710688829422,
				0,
				0,
				0.7071066498756409
			]
		},
		{
			"mesh":2,
			"name":"Object001_default_0"
		},
		{
			"children":[
				4
			],
			"name":"Object001",
			"rotation":[
				-0.70710688829422,
				0,
				0,
				0.7071066498756409
			]
		},
		{
			"children":[
				1,
				3,
				5
			],
			"name":"RootNode.001"
		},
		{
			"children":[
				6
			],
			"name":"1.FBX",
			"rotation":[
				0.70710688829422,
				0,
				0,
				0.7071066498756409
			]
		},
		{
			"children":[
				7
			],
			"name":"Sketchfab_model.001",
			"rotation":[
				-0.7071070671081543,
				0,
				0,
				0.7071065902709961
			],
			"translation":[
				0,
				0.9557204246520996,
				0.03191949054598808
			]
		},
		{
			"mesh":3,
			"name":"MacBook_1_MacBook.1_0",
			"translation":[
				-31.91954803466797,
				3.792608367803041e-06,
				43.359283447265625
			]
		},
		{
			"children":[
				9
			],
			"name":"MacBook_1",
			"rotation":[
				0,
				0.7071068286895752,
				0,
				0.7071067094802856
			],
			"translation":[
				8.577927589416504,
				13.852782249450684,
				133.99574279785156
			]
		},
		{
			"name":"Muis_1",
			"rotation":[
				0,
				-0.9901275038719177,
				0,
				0.14016976952552795
			],
			"translation":[
				-8.577943801879883,
				-13.852782249450684,
				-133.99575805664062
			]
		},
		{
			"children":[
				10,
				11
			],
			"name":"RootNode",
			"translation":[
				-8.040206012083218e-06,
				0,
				5.525674168893602e-06
			]
		},
		{
			"children":[
				12
			],
			"name":"Macbook_Cartoon_2.fbx",
			"rotation":[
				0.70710688829422,
				0,
				0,
				0.7071066498756409
			],
			"translation":[
				-8.04020692157792e-06,
				6.8367721723916475e-06,
				0
			]
		},
		{
			"children":[
				13
			],
			"name":"Sketchfab_model",
			"rotation":[
				-0.5000000596046448,
				0.5,
				0.5,
				0.5
			],
			"scale":[
				0.004000000189989805,
				0.004000000189989805,
				0.004000000189989805
			],
			"translation":[
				-0.6605677604675293,
				0.08622712641954422,
				0.9470134973526001
			]
		}
	],
	"materials":[
		{
			"doubleSided":true,
			"emissiveFactor":[
				1,
				1,
				1
			],
			"emissiveTexture":{
				"index":0
			},
			"extensions":{
				"KHR_materials_specular":{
					"specularColorFactor":[
						0,
						0,
						0
					]
				}
			},
			"name":"default",
			"pbrMetallicRoughness":{
				"baseColorFactor":[
					0,
					0,
					0,
					1
				],
				"metallicFactor":0
			}
		},
		{
			"doubleSided":true,
			"emissiveFactor":[
				0.8999999761581421,
				0.8999999761581421,
				0.8999999761581421
			],
			"emissiveTexture":{
				"index":1
			},
			"extensions":{
				"KHR_materials_specular":{
					"specularColorFactor":[
						0,
						0,
						0
					]
				},
				"KHR_materials_ior":{
					"ior":1.4500000476837158
				}
			},
			"name":"MacBook.003",
			"pbrMetallicRoughness":{
				"baseColorFactor":[
					0,
					0,
					0,
					1
				],
				"metallicFactor":0
			}
		}
	],
	"meshes":[
		{
			"name":"Box002_default_0",
			"primitives":[
				{
					"attributes":{
						"POSITION":0,
						"TEXCOORD_0":1,
						"NORMAL":2
					},
					"indices":3,
					"material":0
				}
			]
		},
		{
			"name":"Group18985_default_0",
			"primitives":[
				{
					"attributes":{
						"POSITION":4,
						"TEXCOORD_0":5,
						"NORMAL":6
					},
					"indices":7,
					"material":0
				}
			]
		},
		{
			"name":"Object001_default_0",
			"primitives":[
				{
					"attributes":{
						"POSITION":8,
						"TEXCOORD_0":9,
						"NORMAL":10
					},
					"indices":11,
					"material":0
				}
			]
		},
		{
			"name":"MacBook_1_MacBook.1_0.001",
			"primitives":[
				{
					"attributes":{
						"POSITION":12,
						"TEXCOORD_0":13,
						"NORMAL":14
					},
					"indices":15,
					"material":1
				}
			]
		}
	],
	"textures":[
		{
			"sampler":0,
			"source":0
		},
		{
			"sampler":0,
			"source":1
		}
	],
	"images":[
		{
			"mimeType":"image/png",
			"name":"default_baseColor",
			"uri":"texture/default_baseColor.png"
		},
		{
			"mimeType":"image/jpeg",
			"name":"Image_0",
			"uri":"texture/Image_0.jpg"
		}
	],
	"accessors":[
		{
			"bufferView":0,
			"componentType":5126,
			"count":2145,
			"max":[
				0.4604490101337433,
				1.4105160236358643,
				0.3757419288158417
			],
			"min":[
				-0.4604490101337433,
				-0.3642579913139343,
				-1.0053009986877441
			],
			"type":"VEC3"
		},
		{
			"bufferView":1,
			"componentType":5126,
			"count":2145,
			"type":"VEC2"
		},
		{
			"bufferView":2,
			"componentType":5126,
			"count":2145,
			"type":"VEC3"
		},
		{
			"bufferView":3,
			"componentType":5123,
			"count":11124,
			"type":"SCALAR"
		},
		{
			"bufferView":4,
			"componentType":5126,
			"count":272,
			"max":[
				0.31733599305152893,
				0.47673898935317993,
				-0.0806410014629364
			],
			"min":[
				-0.31733599305152893,
				-0.058437999337911606,
				-0.5076500177383423
			],
			"type":"VEC3"
		},
		{
			"bufferView":5,
			"componentType":5126,
			"count":272,
			"type":"VEC2"
		},
		{
			"bufferView":6,
			"componentType":5126,
			"count":272,
			"type":"VEC3"
		},
		{
			"bufferView":7,
			"componentType":5123,
			"count":1152,
			"type":"SCALAR"
		},
		{
			"bufferView":8,
			"componentType":5126,
			"count":130,
			"max":[
				0.1959719955921173,
				-0.12931400537490845,
				0.05310700088739395
			],
			"min":[
				-0.1959719955921173,
				-0.20747999846935272,
				-0.10322500020265579
			],
			"type":"VEC3"
		},
		{
			"bufferView":9,
			"componentType":5126,
			"count":130,
			"type":"VEC2"
		},
		{
			"bufferView":10,
			"componentType":5126,
			"count":130,
			"type":"VEC3"
		},
		{
			"bufferView":11,
			"componentType":5123,
			"count":672,
			"type":"SCALAR"
		},
		{
			"bufferView":12,
			"componentType":5126,
			"count":9785,
			"max":[
				185.1588134765625,
				247.5128936767578,
				173.3531951904297
			],
			"min":[
				-185.18055725097656,
				-42.351219177246094,
				-202.86412048339844
			],
			"type":"VEC3"
		},
		{
			"bufferView":13,
			"componentType":5126,
			"count":9785,
			"type":"VEC2"
		},
		{
			"bufferView":14,
			"componentType":5126,
			"count":9785,
			"type":"VEC3"
		},
		{
			"bufferView":15,
			"componentType":5123,
			"count":41076,
			"type":"SCALAR"
		}
	],
	"bufferViews":[
		{
			"buffer":0,
			"byteLength":25740,
			"byteOffset":0,
			"target":34962
		},
		{
			"buffer":0,
			"byteLength":17160,
			"byteOffset":25740,
			"target":34962
		},
		{
			"buffer":0,
			"byteLength":25740,
			"byteOffset":42900,
			"target":34962
		},
		{
			"buffer":0,
			"byteLength":22248,
			"byteOffset":68640,
			"target":34963
		},
		{
			"buffer":0,
			"byteLength":3264,
			"byteOffset":90888,
			"target":34962
		},
		{
			"buffer":0,
			"byteLength":2176,
			"byteOffset":94152,
			"target":34962
		},
		{
			"buffer":0,
			"byteLength":3264,
			"byteOffset":96328,
			"target":34962
		},
		{
			"buffer":0,
			"byteLength":2304,
			"byteOffset":99592,
			"target":34963
		},
		{
			"buffer":0,
			"byteLength":1560,
			"byteOffset":101896,
			"target":34962
		},
		{
			"buffer":0,
			"byteLength":1040,
			"byteOffset":103456,
			"target":34962
		},
		{
			"buffer":0,
			"byteLength":1560,
			"byteOffset":104496,
			"target":34962
		},
		{
			"buffer":0,
			"byteLength":1344,
			"byteOffset":106056,
			"target":34963
		},
		{
			"buffer":0,
			"byteLength":117420,
			"byteOffset":107400,
			"target":34962
		},
		{
			"buffer":0,
			"byteLength":78280,
			"byteOffset":224820,
			"target":34962
		},
		{
			"buffer":0,
			"byteLength":117420,
			"byteOffset":303100,
			"target":34962
		},
		{
			"buffer":0,
			"byteLength":82152,
			"byteOffset":420520,
			"target":34963
		}
	],
	"samplers":[
		{
			"magFilter":9729,
			"minFilter":9987
		}
	],
	"buffers":[
		{
			"byteLength":502672,
			"uri":"shiba.bin"
		}
	]
}
